<svg width="18" height="18" viewBox="0 0 18 18" fill="none" xmlns="http://www.w3.org/2000/svg">
<path d="M2.99975 13.1771C3.14113 13.0357 3.14113 12.8065 2.99975 12.6651C2.85838 12.5237 2.62914 12.5237 2.48773 12.6651L1.10603 14.0468C0.964657 14.1882 0.964657 14.4175 1.10603 14.5589C1.1767 14.6295 1.26938 14.6649 1.36202 14.6649C1.45467 14.6649 1.54735 14.6295 1.61802 14.5589L2.99975 13.1771ZM12.1114 3.4846C11.7903 3.80569 11.6135 4.23256 11.6135 4.68659C11.6135 5.14065 11.7903 5.56752 12.1114 5.88857C12.4427 6.21994 12.878 6.38561 13.3134 6.38561C13.7487 6.38561 14.1839 6.21994 14.5153 5.88857C14.8364 5.56752 15.0132 5.14065 15.0132 4.68659C15.0132 4.23256 14.8364 3.80569 14.5153 3.4846C13.8526 2.82186 12.7742 2.82186 12.1114 3.4846ZM14.0033 5.37659C13.6229 5.75712 13.0038 5.75708 12.6234 5.37659C12.439 5.19228 12.3376 4.94729 12.3376 4.68659C12.3376 4.42596 12.4391 4.1809 12.6234 3.99659C12.8136 3.80634 13.0634 3.71123 13.3134 3.71123C13.5632 3.71123 13.8131 3.80638 14.0033 3.99659C14.1876 4.1809 14.2891 4.42592 14.2891 4.68659C14.2891 4.94729 14.1876 5.19228 14.0033 5.37659ZM4.14153 13.8069C4.00016 13.6655 3.77092 13.6655 3.62955 13.8069L1.69137 15.7451C1.54999 15.8864 1.54999 16.1157 1.69137 16.2571C1.76207 16.3278 1.85471 16.3631 1.94736 16.3631C2.04 16.3631 2.13268 16.3278 2.20335 16.2571L4.14153 14.3189C4.28291 14.1775 4.28291 13.9482 4.14153 13.8069Z" fill="white" stroke="white" stroke-width="0.2"/>
<path d="M16.7695 1.48254C16.7528 1.42236 16.7208 1.36752 16.6766 1.32336C16.6325 1.27919 16.5776 1.2472 16.5174 1.23049C15.198 0.864295 13.7689 0.935543 12.3844 1.43642C11.3117 1.82455 10.2684 2.4752 9.52202 3.2216L8.39624 4.34738L4.3178 4.98445C4.242 4.99629 4.17192 5.0319 4.11767 5.08614L1.50918 7.69463C1.45949 7.74435 1.42534 7.80746 1.41091 7.87626C1.39648 7.94506 1.40239 8.01657 1.42792 8.08207C1.45344 8.14757 1.49749 8.20422 1.55467 8.2451C1.61185 8.28599 1.6797 8.30935 1.74993 8.31233L4.32301 8.42054L3.67812 9.06543C3.53675 9.2068 3.53675 9.43604 3.67812 9.57745L4.05453 9.95382L2.93031 11.6771C2.88491 11.7466 2.86483 11.8297 2.87343 11.9123C2.88202 11.995 2.91877 12.0721 2.97751 12.1309L5.86911 15.0224C5.92786 15.0812 6.00502 15.1179 6.08766 15.1265C6.17029 15.1351 6.25337 15.115 6.32295 15.0696L8.04612 13.9454L8.42253 14.3218C8.5639 14.4631 8.79314 14.4631 8.93455 14.3218L9.57944 13.6769L9.68765 16.2499C9.69061 16.3201 9.71395 16.388 9.75484 16.4452C9.79572 16.5024 9.85237 16.5465 9.91788 16.572C9.98338 16.5975 10.0549 16.6034 10.1237 16.589C10.1925 16.5746 10.2556 16.5404 10.3054 16.4907L12.9138 13.8822C12.9681 13.8279 13.0037 13.7579 13.0156 13.6821L13.6527 9.60366L14.7784 8.47789C15.5248 7.73152 16.1755 6.68821 16.5636 5.61551C17.0644 4.23113 17.1356 2.80193 16.7695 1.48254ZM6.17336 14.3027L3.69727 11.8266L4.57777 10.477L5.79435 11.6936L5.65127 11.8366C5.50986 11.978 5.50986 12.2073 5.65127 12.3487C5.79265 12.49 6.02189 12.49 6.1633 12.3487L6.30637 12.2056L7.52295 13.4222L6.17336 14.3027ZM14.2664 7.96594L13.0571 9.1752L13.0567 9.17563L11.7985 10.4338C11.6571 10.5752 11.6571 10.8045 11.7985 10.9459C11.9399 11.0872 12.1691 11.0872 12.3105 10.9459L12.7841 10.4723L12.3184 13.4537L10.3764 15.3957L10.2749 12.9815L11.2865 11.9698C11.4279 11.8285 11.4279 11.5992 11.2865 11.4578C11.1452 11.3165 10.9159 11.3165 10.7745 11.4578L9.65145 12.5809L9.64964 12.5827L8.67852 13.5538L8.3557 13.2309C8.35203 13.2271 8.34829 13.2234 8.34447 13.2198L6.81832 11.6936L11.1969 7.315C11.3383 7.17363 11.3383 6.94439 11.1969 6.80298C11.0556 6.66167 10.8264 6.66164 10.6849 6.80298L6.30634 11.1816L4.78011 9.6554C4.77649 9.65163 4.7728 9.64794 4.769 9.64428L4.44617 9.32142L5.41729 8.35031L5.41907 8.34853L6.54213 7.22547C6.68354 7.0841 6.68354 6.85486 6.54213 6.71345C6.40079 6.57211 6.17151 6.57211 6.03014 6.71345L5.01851 7.72507L2.60426 7.62352L4.5462 5.68158L7.52769 5.21586L7.05408 5.68944L7.56607 6.20146L8.82048 4.94705C8.82319 4.94441 8.82591 4.94173 8.82855 4.93898L10.034 3.73355C11.0414 2.72612 13.4336 1.23342 16.1235 1.87643C16.7665 4.56634 15.2738 6.95854 14.2664 7.96594ZM4.82287 15.0002L3.44113 16.3819C3.29976 16.5233 3.29976 16.7525 3.44113 16.894C3.51184 16.9646 3.60448 17 3.69713 17C3.78977 17 3.88245 16.9646 3.95312 16.894L5.33486 15.5122C5.47623 15.3709 5.47623 15.1416 5.33486 15.0002C5.19352 14.8588 4.96428 14.8588 4.82287 15.0002Z" fill="white" stroke="white" stroke-width="0.2"/>
</svg>
