<svg width="144" height="56" viewBox="0 0 144 56" fill="none" xmlns="http://www.w3.org/2000/svg">
<rect width="144" height="56" rx="28" fill="url(#paint0_linear_13_4305)"/>
<path d="M30.846 35V22.22H33.69V32.39H38.442V35H30.846ZM43.994 35.18C41.402 35.18 39.062 33.416 39.062 30.338C39.062 27.17 41.42 25.46 43.832 25.46C46.208 25.46 48.998 27.116 48.404 31.4H41.744C42.122 32.408 43.058 32.912 44.3 32.912C45.128 32.912 45.866 32.714 46.55 32.192L47.81 33.506C47.036 34.478 45.704 35.18 43.994 35.18ZM41.69 29.402H45.956C45.758 28.322 44.804 27.8 43.868 27.8C42.932 27.8 41.996 28.286 41.69 29.402ZM53.4028 35.108C51.6748 35.108 50.4148 34.262 50.4148 32.12V27.854H49.0288V25.64H50.4148V23.246H53.2048V25.64H55.1668V27.854H53.2048V31.67C53.2048 32.138 53.4748 32.642 54.3208 32.642C54.5368 32.642 54.8608 32.606 55.2028 32.498V34.622C54.8428 34.982 54.0508 35.108 53.4028 35.108ZM59.3365 22.346C59.2285 22.766 59.0905 23.222 58.9225 23.714C58.7545 24.194 58.5745 24.68 58.3825 25.172C58.1905 25.652 57.9925 26.114 57.7885 26.558H55.8625C55.9465 26.198 56.0305 25.826 56.1145 25.442C56.1985 25.058 56.2765 24.674 56.3485 24.29C56.4325 23.894 56.5045 23.516 56.5645 23.156C56.6365 22.796 56.6965 22.46 56.7445 22.148H59.2105L59.3365 22.346ZM63.4548 35.18C61.5648 35.18 60.1428 34.298 59.8548 32.516L62.0688 31.922C62.2128 32.372 62.5368 33.002 63.4188 33.002C63.9228 33.002 64.3908 32.75 64.3908 32.228C64.3908 31.922 64.2108 31.634 63.5988 31.436L62.3388 30.968C60.7908 30.41 60.1248 29.402 60.1248 28.232C60.1248 26.486 61.6908 25.46 63.5268 25.46C65.2908 25.46 66.5688 26.45 66.8928 27.962L64.7148 28.502C64.4808 27.782 64.0128 27.62 63.6348 27.62C63.0948 27.62 62.8248 27.944 62.8248 28.268C62.8248 28.574 63.0048 28.862 63.6348 29.06L64.8048 29.492C65.8128 29.834 67.1448 30.536 67.1448 32.228C67.1448 34.118 65.5428 35.18 63.4548 35.18ZM76.1715 35.18C73.9215 35.18 72.0675 33.848 71.5815 31.976L73.8855 30.914C74.2455 31.778 74.9295 32.606 76.1355 32.606C76.9815 32.606 77.7555 32.192 77.7555 31.202C77.7555 30.446 77.3415 30.086 76.1175 29.6L75.3255 29.294C73.6155 28.61 72.0495 27.674 72.0495 25.604C72.0495 23.39 73.9035 22.04 76.1175 22.04C78.3675 22.04 79.7175 23.408 80.3295 24.758L78.2235 25.946C77.6655 24.974 77.0175 24.56 76.2255 24.56C75.4515 24.56 74.8575 24.92 74.8575 25.64C74.8575 26.198 75.1815 26.63 76.5135 27.17L77.3775 27.512C79.6815 28.43 80.7075 29.474 80.7075 31.238C80.7075 33.902 78.3315 35.18 76.1715 35.18ZM85.4302 35.108C83.7022 35.108 82.4422 34.262 82.4422 32.12V27.854H81.0562V25.64H82.4422V23.246H85.2322V25.64H87.1942V27.854H85.2322V31.67C85.2322 32.138 85.5022 32.642 86.3482 32.642C86.5642 32.642 86.8882 32.606 87.2302 32.498V34.622C86.8702 34.982 86.0782 35.108 85.4302 35.108ZM92.4459 35.18C90.3219 35.18 87.9819 33.578 87.9819 30.32C87.9819 27.062 90.3219 25.46 92.4459 25.46C94.1019 25.46 95.0739 26.36 95.2179 26.702H95.2719V25.64H98.0619V35H95.2719V33.938H95.2179C95.0739 34.28 94.1019 35.18 92.4459 35.18ZM90.7359 30.32C90.7359 31.832 91.8339 32.696 93.0219 32.696C94.2459 32.696 95.3439 31.85 95.3439 30.32C95.3439 28.79 94.2459 27.944 93.0219 27.944C91.8339 27.944 90.7359 28.808 90.7359 30.32ZM99.7523 35V25.64H102.542V28.178C102.848 26.666 103.748 25.46 105.44 25.46C105.656 25.46 105.872 25.478 106.106 25.55V28.196C105.89 28.16 105.692 28.142 105.458 28.142C103.604 28.142 102.542 29.384 102.542 31.148V35H99.7523ZM111.27 35.108C109.542 35.108 108.282 34.262 108.282 32.12V27.854H106.896V25.64H108.282V23.246H111.072V25.64H113.034V27.854H111.072V31.67C111.072 32.138 111.342 32.642 112.188 32.642C112.404 32.642 112.728 32.606 113.07 32.498V34.622C112.71 34.982 111.918 35.108 111.27 35.108Z" fill="white"/>
<defs>
<linearGradient id="paint0_linear_13_4305" x1="3.28168e-07" y1="27.5254" x2="144" y2="27.5254" gradientUnits="userSpaceOnUse">
<stop stop-color="#8A35F2"/>
<stop offset="1" stop-color="#BC4BDF"/>
</linearGradient>
</defs>
</svg>
