<svg width="50" height="50" viewBox="0 0 50 50" fill="none" xmlns="http://www.w3.org/2000/svg">
<rect x="1" y="1" width="48" height="48" rx="24" stroke="url(#paint0_linear_7_4196)" stroke-width="2"/>
<path d="M35.8554 34.0639C34.4589 31.5233 32.2782 29.5436 29.6645 28.4437C30.9643 27.4332 31.9244 26.0244 32.4088 24.4169C32.8933 22.8093 32.8775 21.0845 32.3637 19.4868C31.8499 17.8891 30.8642 16.4994 29.5462 15.5146C28.2281 14.5299 26.6446 14 25.0199 14C23.3951 14 21.8116 14.5299 20.4936 15.5146C19.1755 16.4994 18.1898 17.8891 17.676 19.4868C17.1622 21.0845 17.1464 22.8093 17.6309 24.4169C18.1153 26.0244 19.0754 27.4332 20.3752 28.4437C17.7615 29.5436 15.5808 31.5233 14.1843 34.0639C14.0978 34.2081 14.0401 34.3689 14.0148 34.5367C13.9894 34.7045 13.9968 34.8759 14.0366 35.0406C14.0764 35.2054 14.1477 35.3602 14.2463 35.4958C14.345 35.6314 14.4689 35.7451 14.6108 35.8301C14.7527 35.915 14.9096 35.9696 15.0722 35.9904C15.2348 36.0113 15.3998 35.998 15.5574 35.9514C15.715 35.9049 15.8619 35.8259 15.9895 35.7193C16.117 35.6127 16.2226 35.4806 16.2999 35.3309C18.1456 32.024 21.405 30.0517 25.0199 30.0517C28.6347 30.0517 31.8941 32.0251 33.7398 35.3309C33.9074 35.6102 34.1731 35.811 34.4809 35.8909C34.7887 35.9707 35.1144 35.9234 35.3892 35.7588C35.6639 35.5943 35.8662 35.3255 35.9532 35.0092C36.0402 34.6929 36.0051 34.3539 35.8554 34.0639ZM19.7233 22.0275C19.7233 20.9416 20.0339 19.8801 20.6159 18.9772C21.1979 18.0743 22.0251 17.3706 22.993 16.9551C23.9608 16.5395 25.0257 16.4308 26.0532 16.6426C27.0806 16.8545 28.0243 17.3774 28.7651 18.1452C29.5058 18.9131 30.0103 19.8913 30.2146 20.9564C30.419 22.0214 30.3141 23.1253 29.9132 24.1285C29.5123 25.1317 28.8335 25.9892 27.9625 26.5925C27.0914 27.1958 26.0674 27.5178 25.0199 27.5178C23.6156 27.5161 22.2694 26.9371 21.2764 25.9078C20.2835 24.8786 19.7249 23.4831 19.7233 22.0275Z" fill="url(#paint1_linear_7_4196)"/>
<defs>
<linearGradient id="paint0_linear_7_4196" x1="0" y1="25" x2="50" y2="25" gradientUnits="userSpaceOnUse">
<stop stop-color="#8A35F2"/>
<stop offset="1" stop-color="#BC4BDF"/>
</linearGradient>
<linearGradient id="paint1_linear_7_4196" x1="14" y1="25" x2="36" y2="25" gradientUnits="userSpaceOnUse">
<stop stop-color="#8A35F2"/>
<stop offset="1" stop-color="#BC4BDF"/>
</linearGradient>
</defs>
</svg>
