<svg width="198" height="38" viewBox="0 0 198 38" fill="none" xmlns="http://www.w3.org/2000/svg">
<path d="M11.424 0.179998H19.362L30.618 30H22.638L21.168 25.758H9.66L8.19 30H0.168L11.424 0.179998ZM12.012 18.996H18.774L15.372 9.252L12.012 18.996ZM32.6507 30V0.179998H40.0427V30H32.6507Z" fill="url(#paint0_linear_2_4167)"/>
<path d="M53.301 0.179998H61.239L72.495 30H64.515L63.045 25.758H51.537L50.067 30H42.045L53.301 0.179998ZM53.889 18.996H60.651L57.249 9.252L53.889 18.996ZM74.5277 30V8.16H81.7937V14.124C82.5077 10.512 84.6077 7.74 88.4717 7.74C88.9757 7.74 89.5217 7.782 90.1097 7.95V14.88C89.5637 14.754 89.1017 14.712 88.5137 14.712C84.1457 14.712 81.7937 17.568 81.7937 21.516V30H74.5277ZM102.525 30.252C98.1566 30.252 95.0066 28.152 95.0066 22.692V13.872H91.6886V8.16H95.0066V2.574H102.273V8.16H106.893V13.872H102.273V21.6C102.273 22.608 102.861 23.868 104.919 23.868C105.423 23.868 106.221 23.784 106.977 23.532V29.034C106.137 29.958 104.163 30.252 102.525 30.252ZM109.76 30V8.16H117.026V30H109.76ZM109.76 6.438V0.179998H117.026V6.438H109.76ZM128.019 30.42C123.525 30.42 120.123 28.404 119.451 24.12L125.163 22.566C125.457 23.322 125.961 24.792 127.893 24.792C128.901 24.792 129.741 24.33 129.741 23.406C129.741 22.944 129.489 22.356 128.355 22.02L125.163 20.844C121.551 19.584 119.997 17.19 119.997 14.376C119.997 10.176 123.819 7.74 128.229 7.74C132.513 7.74 135.621 10.176 136.335 13.83L130.665 15.216C130.203 13.536 129.153 13.284 128.523 13.284C127.389 13.284 127.011 14.04 127.011 14.502C127.011 15.006 127.305 15.594 128.565 15.93L131.547 17.022C133.647 17.694 136.881 19.332 136.881 23.406C136.881 27.816 133.101 30.42 128.019 30.42ZM148.913 30.252C144.545 30.252 141.395 28.152 141.395 22.692V13.872H138.077V8.16H141.395V2.574H148.661V8.16H153.281V13.872H148.661V21.6C148.661 22.608 149.249 23.868 151.307 23.868C151.811 23.868 152.609 23.784 153.365 23.532V29.034C152.525 29.958 150.551 30.252 148.913 30.252ZM156.149 30V8.16H163.415V14.124C164.129 10.512 166.229 7.74 170.093 7.74C170.597 7.74 171.143 7.782 171.731 7.95V14.88C171.185 14.754 170.723 14.712 170.135 14.712C165.767 14.712 163.415 17.568 163.415 21.516V30H156.149ZM178.35 37.98L181.92 29.79L172.89 8.16H180.282L185.406 21.516L190.488 8.16H197.88L185.448 37.98H178.35Z" fill="#170033"/>
<defs>
<linearGradient id="paint0_linear_2_4167" x1="1.48267e-06" y1="14" x2="44.5677" y2="14" gradientUnits="userSpaceOnUse">
<stop stop-color="#8A35F2"/>
<stop offset="1" stop-color="#BC4BDF"/>
</linearGradient>
</defs>
</svg>
