<svg width="20" height="20" viewBox="0 0 20 20" fill="none" xmlns="http://www.w3.org/2000/svg">
<path d="M7 1C7.25488 1.00028 7.50003 1.09788 7.68537 1.27285C7.8707 1.44782 7.98224 1.68695 7.99717 1.94139C8.01211 2.19584 7.92933 2.44638 7.76574 2.64183C7.60215 2.83729 7.3701 2.9629 7.117 2.993L7 3H3V17H17V8C17.0003 7.74512 17.0979 7.49997 17.2728 7.31463C17.4478 7.1293 17.687 7.01776 17.9414 7.00283C18.1958 6.98789 18.4464 7.07067 18.6418 7.23426C18.8373 7.39785 18.9629 7.6299 18.993 7.883L19 8V17C19.0002 17.5046 18.8096 17.9906 18.4665 18.3605C18.1234 18.7305 17.6532 18.9572 17.15 18.995L17 19H3C2.49542 19.0002 2.00943 18.8096 1.63945 18.4665C1.26947 18.1234 1.04284 17.6532 1.005 17.15L1 17V3C0.99984 2.49542 1.19041 2.00943 1.5335 1.63945C1.87659 1.26947 2.34684 1.04284 2.85 1.005L3 1H7ZM17.513 1C18.135 1 18.497 1.468 18.588 1.856C18.679 2.245 18.563 2.827 18.003 3.103L17.589 3.314L17.425 3.402L17.062 3.603L16.657 3.839L16.218 4.109C15.536 4.539 14.758 5.085 13.976 5.746C12.322 7.145 10.718 9.007 9.949 11.316C9.86519 11.5677 9.68483 11.7758 9.4476 11.8945C9.21036 12.0132 8.93569 12.0328 8.684 11.949C8.43231 11.8652 8.22422 11.6848 8.10551 11.4476C7.9868 11.2104 7.96719 10.9357 8.051 10.684C8.979 7.9 10.874 5.751 12.685 4.219C13.116 3.854 13.547 3.521 13.963 3.219L14.273 3H12C11.7451 2.99972 11.5 2.90212 11.3146 2.72715C11.1293 2.55218 11.0178 2.31305 11.0028 2.05861C10.9879 1.80416 11.0707 1.55362 11.2343 1.35817C11.3979 1.16271 11.6299 1.0371 11.883 1.007L12 1H17.513Z" fill="url(#paint0_linear_23_42)" stroke="url(#paint1_linear_23_42)"/>
<defs>
<linearGradient id="paint0_linear_23_42" x1="1" y1="9.84745" x2="19" y2="9.84745" gradientUnits="userSpaceOnUse">
<stop stop-color="#8A35F2"/>
<stop offset="1" stop-color="#BC4BDF"/>
</linearGradient>
<linearGradient id="paint1_linear_23_42" x1="1" y1="9.84745" x2="19" y2="9.84745" gradientUnits="userSpaceOnUse">
<stop stop-color="#8A35F2"/>
<stop offset="1" stop-color="#BC4BDF"/>
</linearGradient>
</defs>
</svg>
