<svg width="124" height="56" viewBox="0 0 124 56" fill="none" xmlns="http://www.w3.org/2000/svg">
<rect width="124" height="56" rx="28" fill="url(#paint0_linear_13_4289)"/>
<path d="M34.986 35.18C32.736 35.18 30.882 33.848 30.396 31.976L32.7 30.914C33.06 31.778 33.744 32.606 34.95 32.606C35.796 32.606 36.57 32.192 36.57 31.202C36.57 30.446 36.156 30.086 34.932 29.6L34.14 29.294C32.43 28.61 30.864 27.674 30.864 25.604C30.864 23.39 32.718 22.04 34.932 22.04C37.182 22.04 38.532 23.408 39.144 24.758L37.038 25.946C36.48 24.974 35.832 24.56 35.04 24.56C34.266 24.56 33.672 24.92 33.672 25.64C33.672 26.198 33.996 26.63 35.328 27.17L36.192 27.512C38.496 28.43 39.522 29.474 39.522 31.238C39.522 33.902 37.146 35.18 34.986 35.18ZM40.7601 35V25.64H43.5501V35H40.7601ZM40.7601 24.65V22.22H43.5501V24.65H40.7601ZM49.8685 38.744C48.8605 38.744 47.7445 38.582 47.1505 38.186V35.954C47.5825 36.242 48.5185 36.422 49.3465 36.422C51.1105 36.422 52.0825 35.594 52.0825 34.442V33.938H51.9745C51.8305 34.28 50.8945 35.18 49.2745 35.18C47.1505 35.18 44.7925 33.578 44.7925 30.32C44.7925 27.062 47.1505 25.46 49.2745 25.46C50.8945 25.46 51.8305 26.36 51.9745 26.702H52.0825V25.64H54.8725V34.208C54.8725 37.916 51.9565 38.744 49.8685 38.744ZM47.5465 30.32C47.5465 31.832 48.6445 32.696 49.8505 32.696C51.0745 32.696 52.1545 31.85 52.1545 30.32C52.1545 28.79 51.0745 27.944 49.8505 27.944C48.6445 27.944 47.5465 28.808 47.5465 30.32ZM56.7386 35V25.64H59.5286V26.828C60.0506 26.036 60.9686 25.46 62.3006 25.46C64.1906 25.46 65.7926 26.63 65.7926 29.492V35H63.0026V29.978C63.0026 28.808 62.4086 27.944 61.2566 27.944C60.1226 27.944 59.5286 28.808 59.5286 29.978V35H56.7386ZM76.0495 35.18C73.3135 35.18 71.1175 33.434 71.1175 30.158V22.22H73.9615V30.176C73.9615 32.084 75.1315 32.516 76.0495 32.516C76.9675 32.516 78.1375 32.084 78.1375 30.176V22.22H80.9815V30.158C80.9815 33.434 78.7675 35.18 76.0495 35.18ZM82.6663 38.42V25.64H85.4563V26.702H85.5103C85.6543 26.36 86.6263 25.46 88.2823 25.46C90.4063 25.46 92.7463 27.062 92.7463 30.32C92.7463 33.578 90.4063 35.18 88.2823 35.18C86.6263 35.18 85.6543 34.28 85.5103 33.938H85.4563V38.42H82.6663ZM85.3843 30.32C85.3843 31.85 86.4823 32.696 87.7063 32.696C88.8943 32.696 89.9923 31.832 89.9923 30.32C89.9923 28.808 88.8943 27.944 87.7063 27.944C86.4823 27.944 85.3843 28.79 85.3843 30.32Z" fill="white"/>
<defs>
<linearGradient id="paint0_linear_13_4289" x1="2.82589e-07" y1="27.5254" x2="124" y2="27.5254" gradientUnits="userSpaceOnUse">
<stop stop-color="#8A35F2"/>
<stop offset="1" stop-color="#BC4BDF"/>
</linearGradient>
</defs>
</svg>
