<svg width="18" height="18" viewBox="0 0 18 18" fill="none" xmlns="http://www.w3.org/2000/svg">
<path d="M8.84237 13.6031C8.71468 13.5723 8.11577 13.6921 7.54502 13.3347C7.51792 13.3178 7.48821 13.3072 7.45759 13.3035C7.42696 13.2999 7.39602 13.3033 7.36653 13.3136C7.33703 13.3238 7.30957 13.3407 7.28571 13.3633C7.26184 13.3859 7.24204 13.4138 7.22743 13.4453C7.21282 13.4767 7.2037 13.5113 7.20057 13.5469C7.19745 13.5824 7.20038 13.6184 7.20922 13.6527C7.21805 13.6869 7.23261 13.7188 7.25205 13.7466C7.2715 13.7743 7.29546 13.7973 7.32256 13.8143C7.37118 13.8447 7.41993 13.8724 7.46877 13.8975C6.99052 14.1416 6.60415 14.5822 6.37843 15.2334C6.16427 14.6242 5.79724 14.161 5.28762 13.8968C5.80737 13.6273 6.16896 13.156 6.37843 12.5603C6.4233 12.689 6.46424 12.7784 6.46581 12.7821C6.49445 12.8457 6.54353 12.8935 6.60237 12.9153C6.66121 12.9371 6.72508 12.931 6.78008 12.8984C6.83508 12.8657 6.87679 12.8092 6.89613 12.7411C6.91548 12.6729 6.9109 12.5987 6.8834 12.5344C6.88271 12.5308 6.59893 11.929 6.63246 11.128C6.65162 10.9779 6.56105 10.8286 6.42296 10.7991C6.29727 10.7703 6.15802 10.863 6.12565 11.027C6.1089 11.112 6.23015 12.5828 5.31152 13.2653C4.71349 13.7085 4.03455 13.5708 3.90805 13.6041C3.64065 13.6748 3.64087 14.1189 3.90805 14.1895C4.03299 14.2223 4.72524 14.0849 5.32346 14.5373C6.21184 15.2099 6.1138 16.6416 6.11974 16.7057C6.11974 17.0416 6.53277 17.1172 6.62393 16.7895C6.65477 16.6779 6.52505 15.2579 7.40221 14.5601C7.98012 14.0999 8.69631 14.2109 8.82093 14.1946C9.10612 14.1574 9.13162 13.6742 8.84237 13.6031ZM16.7489 8.28933C16.3204 8.23402 13.2657 8.7326 11.9306 5.47571C11.2288 3.76258 11.4088 2.20955 11.3706 2.01471C11.3361 1.83955 11.1936 1.73461 11.0573 1.75483C10.9019 1.77528 10.7988 1.9248 10.7988 2.07534V2.78209C10.6929 5.21169 9.74134 7.27993 7.74315 8.00792C6.58924 8.4285 5.58749 8.24684 5.40046 8.29437C5.10052 8.37346 5.09827 8.874 5.40365 8.95283C5.66515 9.01695 7.63259 8.64658 9.16043 10.1209C9.2084 10.1655 9.26955 10.1865 9.3307 10.1793C9.39185 10.1721 9.44811 10.1373 9.48738 10.0823C9.52665 10.0274 9.54579 9.95672 9.54066 9.88555C9.53554 9.81438 9.50657 9.7484 9.45999 9.7018C8.93574 9.19592 8.3074 8.83442 7.5884 8.6244C9.48131 8.07041 10.6432 6.50042 11.0879 4.30125C11.5289 6.48695 12.6811 8.07085 14.5944 8.62207C12.7002 9.17279 11.5223 10.7415 11.0852 12.9346C10.9224 12.1308 10.6509 11.3614 10.2428 10.6895C10.2066 10.6315 10.1522 10.5925 10.0914 10.5808C10.0306 10.569 9.96822 10.5856 9.91785 10.6269C9.86749 10.6682 9.83315 10.7309 9.82227 10.8014C9.81138 10.8719 9.82484 10.9445 9.85971 11.0036C10.0036 11.2404 10.1331 11.4985 10.2447 11.7706C10.9068 13.387 10.7898 15.0315 10.7994 15.1902C10.8242 15.5954 11.3931 15.6158 11.3753 15.1147C11.3432 14.2116 11.4035 11.1522 13.5302 9.70046C14.9653 8.72182 16.5617 9.00769 16.7748 8.95199C17.096 8.86728 17.0613 8.33007 16.7489 8.28933ZM6.13462 3.80913C5.9759 3.7709 4.72459 4.0283 4.16559 2.71793C3.9028 2.10319 3.92105 1.41969 3.92465 1.334C3.94346 1.18567 3.85484 1.03487 3.71493 1.0052C3.59002 0.976483 3.45012 1.06857 3.41777 1.2336C3.40109 1.3182 3.52224 2.78903 2.60371 3.47144C2.02665 3.89918 1.35315 3.78869 1.22621 3.80514C0.940991 3.84283 0.917928 4.321 1.20021 4.39569C1.33652 4.43135 2.01412 4.2885 2.61562 4.74347C3.25668 5.22872 3.3899 6.11992 3.41193 6.61269C3.41496 6.89432 3.40424 6.92707 3.42327 6.99569C3.4583 7.12166 3.55734 7.20622 3.66965 7.20622C3.79859 7.2063 3.90305 7.09551 3.92374 6.95975C3.93805 6.86665 3.87549 6.15845 4.17237 5.47302C4.19936 5.40862 4.20344 5.33446 4.18372 5.26659C4.164 5.19873 4.12207 5.14262 4.067 5.11041C4.01194 5.07821 3.94817 5.0725 3.88951 5.09453C3.83085 5.11656 3.78202 5.16455 3.75359 5.2281C3.72356 5.29763 3.69601 5.36857 3.67102 5.44074C3.45699 4.83112 3.08993 4.36758 2.57987 4.10303C3.09959 3.83342 3.46115 3.36222 3.67062 2.76648C3.87996 3.36658 4.23862 3.83575 4.76055 4.10397C4.70855 4.13063 4.65748 4.15967 4.60746 4.19104C4.58038 4.20806 4.55645 4.23111 4.53704 4.25887C4.51763 4.28663 4.50312 4.31857 4.49433 4.35285C4.48554 4.38713 4.48266 4.42309 4.48583 4.45867C4.48901 4.49425 4.49818 4.52875 4.51284 4.56021C4.54242 4.62375 4.59251 4.67103 4.65209 4.69165C4.71168 4.71228 4.77587 4.70456 4.83055 4.6702C5.3838 4.32241 5.98824 4.417 6.11315 4.40084C6.39987 4.36265 6.42162 3.87968 6.13462 3.80913Z" fill="url(#paint0_linear_26_208)" stroke="url(#paint1_linear_26_208)" stroke-width="0.5"/>
<defs>
<linearGradient id="paint0_linear_26_208" x1="1" y1="8.8644" x2="17" y2="8.8644" gradientUnits="userSpaceOnUse">
<stop stop-color="#8A35F2"/>
<stop offset="1" stop-color="#BC4BDF"/>
</linearGradient>
<linearGradient id="paint1_linear_26_208" x1="1" y1="8.8644" x2="17" y2="8.8644" gradientUnits="userSpaceOnUse">
<stop stop-color="#8A35F2"/>
<stop offset="1" stop-color="#BC4BDF"/>
</linearGradient>
</defs>
</svg>
