<svg width="186" height="56" viewBox="0 0 186 56" fill="none" xmlns="http://www.w3.org/2000/svg">
<rect x="1" y="1" width="184" height="54" rx="27" stroke="url(#paint0_linear_13_4308)" stroke-width="2"/>
<path d="M55.32 35L51.306 22.22H54.294L56.616 30.122L59.154 22.22H61.404L63.924 30.122L66.246 22.22H69.234L65.238 35H62.988L60.27 27.008L57.57 35H55.32ZM72.9987 35.18C70.8747 35.18 68.5347 33.578 68.5347 30.32C68.5347 27.062 70.8747 25.46 72.9987 25.46C74.6547 25.46 75.6267 26.36 75.7707 26.702H75.8247V25.64H78.6147V35H75.8247V33.938H75.7707C75.6267 34.28 74.6547 35.18 72.9987 35.18ZM71.2887 30.32C71.2887 31.832 72.3867 32.696 73.5747 32.696C74.7987 32.696 75.8967 31.85 75.8967 30.32C75.8967 28.79 74.7987 27.944 73.5747 27.944C72.3867 27.944 71.2887 28.808 71.2887 30.32ZM84.229 35.108C82.501 35.108 81.241 34.262 81.241 32.12V27.854H79.855V25.64H81.241V23.246H84.031V25.64H85.993V27.854H84.031V31.67C84.031 32.138 84.301 32.642 85.147 32.642C85.363 32.642 85.687 32.606 86.029 32.498V34.622C85.669 34.982 84.877 35.108 84.229 35.108ZM91.7668 35.18C89.2648 35.18 86.7808 33.506 86.7808 30.302C86.7808 27.134 89.2648 25.46 91.7668 25.46C93.4228 25.46 94.8808 26.216 95.7988 27.764L93.7828 29.078C93.3328 28.466 92.6668 27.98 91.7668 27.98C90.5608 27.98 89.5348 28.88 89.5348 30.302C89.5348 31.76 90.5608 32.66 91.7668 32.66C92.6668 32.66 93.3328 32.174 93.7828 31.562L95.7988 32.876C94.8808 34.388 93.4228 35.18 91.7668 35.18ZM97.0394 35V22.22H99.8294V26.828C100.351 26.036 101.269 25.46 102.601 25.46C104.491 25.46 106.093 26.63 106.093 29.492V35H103.303V29.978C103.303 28.808 102.709 27.944 101.557 27.944C100.423 27.944 99.8294 28.808 99.8294 29.978V35H97.0394ZM115.666 35L110.788 22.22H113.866L117.178 31.49L120.49 22.22H123.568L118.69 35H115.666ZM124.479 35V25.64H127.269V35H124.479ZM124.479 24.65V22.22H127.269V24.65H124.479ZM138.591 35H135.801V33.938H135.747C135.603 34.28 134.631 35.18 132.975 35.18C130.851 35.18 128.511 33.578 128.511 30.32C128.511 27.062 130.851 25.46 132.975 25.46C134.631 25.46 135.603 26.36 135.747 26.702H135.801V22.22H138.591V35ZM131.265 30.32C131.265 31.832 132.363 32.696 133.551 32.696C134.775 32.696 135.873 31.85 135.873 30.32C135.873 28.79 134.775 27.944 133.551 27.944C132.363 27.944 131.265 28.808 131.265 30.32ZM144.764 35.18C142.172 35.18 139.832 33.416 139.832 30.338C139.832 27.17 142.19 25.46 144.602 25.46C146.978 25.46 149.768 27.116 149.174 31.4H142.514C142.892 32.408 143.828 32.912 145.07 32.912C145.898 32.912 146.636 32.714 147.32 32.192L148.58 33.506C147.806 34.478 146.474 35.18 144.764 35.18ZM142.46 29.402H146.726C146.528 28.322 145.574 27.8 144.638 27.8C143.702 27.8 142.766 28.286 142.46 29.402ZM155.03 35.18C152.582 35.18 150.062 33.506 150.062 30.32C150.062 27.134 152.582 25.46 155.03 25.46C157.478 25.46 159.998 27.134 159.998 30.32C159.998 33.506 157.478 35.18 155.03 35.18ZM152.816 30.32C152.816 31.76 153.824 32.66 155.03 32.66C156.236 32.66 157.244 31.76 157.244 30.32C157.244 28.88 156.236 27.98 155.03 27.98C153.824 27.98 152.816 28.88 152.816 30.32Z" fill="url(#paint1_linear_13_4308)"/>
<circle cx="33" cy="28" r="7" stroke="url(#paint2_linear_13_4308)" stroke-width="2"/>
<path d="M33.6679 26.2317L32.5082 25.361C31.9809 24.965 31.2279 25.3413 31.2279 26.0007V29.9986C31.2279 30.658 31.9809 31.0343 32.5082 30.6384L33.6679 29.7677L35.1733 28.6399C35.6004 28.3199 35.6004 27.6794 35.1733 27.3594L33.6679 26.2317ZM33.6679 26.2317L32.5082 25.361C31.9809 24.965 31.2279 25.3413 31.2279 26.0007V29.9986C31.2279 30.658 31.9809 31.0343 32.5082 30.6384L33.6679 29.7677L35.1733 28.6399C35.6004 28.3199 35.6004 27.6794 35.1733 27.3594L33.6679 26.2317ZM33.6679 26.2317L32.5082 25.361C31.9809 24.965 31.2279 25.3413 31.2279 26.0007V29.9986C31.2279 30.658 31.9809 31.0343 32.5082 30.6384L33.6679 29.7677L35.1733 28.6399C35.6004 28.3199 35.6004 27.6794 35.1733 27.3594L33.6679 26.2317Z" fill="url(#paint3_linear_13_4308)"/>
<defs>
<linearGradient id="paint0_linear_13_4308" x1="4.23884e-07" y1="27.5254" x2="186" y2="27.5254" gradientUnits="userSpaceOnUse">
<stop stop-color="#8A35F2"/>
<stop offset="1" stop-color="#BC4BDF"/>
</linearGradient>
<linearGradient id="paint1_linear_13_4308" x1="51" y1="27.7627" x2="161" y2="27.7627" gradientUnits="userSpaceOnUse">
<stop stop-color="#8A35F2"/>
<stop offset="1" stop-color="#BC4BDF"/>
</linearGradient>
<linearGradient id="paint2_linear_13_4308" x1="25" y1="27.8644" x2="41" y2="27.8644" gradientUnits="userSpaceOnUse">
<stop stop-color="#8A35F2"/>
<stop offset="1" stop-color="#BC4BDF"/>
</linearGradient>
<linearGradient id="paint3_linear_13_4308" x1="31.2279" y1="27.9386" x2="36.0279" y2="27.9386" gradientUnits="userSpaceOnUse">
<stop stop-color="#8A35F2"/>
<stop offset="1" stop-color="#BC4BDF"/>
</linearGradient>
</defs>
</svg>
